<svg width="277" height="102" viewBox="0 0 277 102" fill="none" xmlns="http://www.w3.org/2000/svg">
<g clip-path="url(#clip0_3248_81629)">
<path d="M34.0154 0C15.2306 0 0 15.2232 0 33.999H68.0309V0H34.0154Z" fill="#374EF4"/>
<path d="M34.0154 68.001H0V102H34.0154H68.0309V68.001H34.0154Z" fill="#AC8AF8"/>
<path d="M68.0312 33.999V67.998V102H102.05V67.998V33.999H68.0312Z" fill="#F1FE67"/>
<path d="M136.065 33.999H102.05V101.997H136.065V67.998H102.05C120.835 67.998 136.065 52.7747 136.065 33.999Z" fill="#590DE1"/>
<path d="M34.0154 33.999C15.2306 33.999 0 49.2222 0 67.998H68.0309V33.999H34.0154Z" fill="#C3291C"/>
<path d="M102.05 0H68.0342V33.999H136.065C136.065 15.2201 120.834 0 102.05 0Z" fill="#56BCA6"/>
<path d="M102.047 0H68.0312V33.999H102.047V0Z" fill="#1E4C40"/>
<path d="M136.065 67.998H102.05V101.997H136.065V67.998Z" fill="#F1A286"/>
<path d="M174.954 68.001H140.938C140.938 86.7799 156.169 102 174.954 102H208.969V68.001H174.954Z" fill="#5AC561"/>
<path d="M242.984 33.999H208.969V67.998H277C277 49.2191 261.769 33.999 242.984 33.999Z" fill="#6B1D18"/>
<path d="M174.954 0C156.166 0 140.938 15.2232 140.938 33.999V67.9979H174.954V0Z" fill="#91FCDC"/>
<path d="M174.954 0V33.999V68.001H208.97V33.999V0H174.954Z" fill="#EB4F27"/>
<path d="M242.984 0H208.969V33.999H277C277 15.2232 261.772 0 242.984 0Z" fill="#8CB0F9"/>
<path d="M242.984 68.001H208.969V102H242.984C261.772 102 277 86.7767 277 68.001H242.984Z" fill="#BBE849"/>
<path d="M174.954 33.999H140.938V67.998H174.954V33.999Z" fill="#1C2379"/>
<path d="M208.97 67.998H174.954V101.997H208.97V67.998Z" fill="#441887"/>
</g>
<defs>
<clipPath id="clip0_3248_81629">
<rect width="277" height="102" fill="white"/>
</clipPath>
</defs>
</svg>
